<svg xmlns="http://www.w3.org/2000/svg" width="25" height="23" viewBox="0 0 25 23">
  <path fill="#231F1F" fill-rule="evenodd" d="M17.5734,13.7139 C17.2424,12.9839 16.8784,12.2409 16.4904,11.4999 C16.8784,10.7589 17.2424,10.0169 17.5734,9.2859 C21.6004,9.7669 24.0004,10.7549 24.0004,11.4999 C24.0004,12.2449 21.6004,13.2339 17.5734,13.7139 M18.2504,21.4599 C17.6064,21.8239 15.5494,20.2429 13.1194,16.9979 C13.5874,16.3459 14.0494,15.6629 14.4974,14.9559 C15.3324,14.9209 16.1564,14.8649 16.9534,14.7869 C18.5514,18.5139 18.8944,21.0869 18.2504,21.4599 M6.7504,21.4599 C6.1054,21.0869 6.4484,18.5139 8.0474,14.7869 C8.8444,14.8649 9.6674,14.9209 10.5024,14.9559 C10.9514,15.6629 11.4134,16.3469 11.8814,16.9989 C9.4524,20.2449 7.3974,21.8269 6.7504,21.4599 M1.0004,11.4999 C1.0004,10.7549 3.3994,9.7669 7.4274,9.2859 C7.7574,10.0169 8.1224,10.7589 8.5104,11.4999 C8.1224,12.2409 7.7574,12.9839 7.4274,13.7139 C3.3994,13.2339 1.0004,12.2449 1.0004,11.4999 M6.7504,1.5399 C6.8124,1.5049 6.8864,1.4869 6.9744,1.4869 C7.7944,1.4869 9.6844,3.0649 11.8804,5.9989 C11.4134,6.6519 10.9534,7.3379 10.5054,8.0439 C9.6694,8.0789 8.8444,8.1349 8.0474,8.2129 C6.4484,4.4859 6.1054,1.9129 6.7504,1.5399 M15.5314,9.7499 C15.4004,9.5229 15.2644,9.2989 15.1304,9.0729 C15.6124,9.1009 16.0744,9.1369 16.5234,9.1769 C16.3344,9.5859 16.1344,10.0039 15.9164,10.4359 C15.7894,10.2069 15.6624,9.9779 15.5314,9.7499 M11.7154,8.0099 C11.9794,7.6069 12.2414,7.2229 12.5004,6.8549 C12.7594,7.2229 13.0204,7.6069 13.2844,8.0099 C13.0234,8.0049 12.7614,7.9999 12.5004,7.9999 C12.2384,7.9999 11.9764,8.0049 11.7154,8.0099 M9.0844,10.4359 C8.8664,10.0039 8.6664,9.5859 8.4774,9.1769 C8.9264,9.1369 9.3874,9.1009 9.8704,9.0729 C9.7354,9.2989 9.6004,9.5229 9.4694,9.7499 C9.3384,9.9779 9.2114,10.2069 9.0844,10.4359 M9.4694,13.2499 C9.5994,13.4769 9.7344,13.7009 9.8694,13.9259 C9.3864,13.8999 8.9264,13.8629 8.4774,13.8229 C8.6664,13.4139 8.8664,12.9959 9.0844,12.5649 C9.2114,12.7929 9.3384,13.0229 9.4694,13.2499 M13.2864,14.9899 C13.0214,15.3949 12.7604,15.7769 12.5004,16.1449 C12.2404,15.7769 11.9784,15.3949 11.7144,14.9899 C11.9764,14.9949 12.2384,14.9999 12.5004,14.9999 C12.7624,14.9999 13.0244,14.9949 13.2864,14.9899 M14.6654,12.7499 C14.4204,13.1749 14.1754,13.5819 13.9304,13.9779 C13.4654,13.9909 12.9904,13.9999 12.5004,13.9999 C12.0104,13.9999 11.5344,13.9909 11.0704,13.9779 C10.8254,13.5819 10.5804,13.1749 10.3354,12.7499 C10.0904,12.3249 9.8604,11.9089 9.6394,11.4999 C9.8604,11.0909 10.0904,10.6749 10.3354,10.2499 C10.5804,9.8249 10.8254,9.4189 11.0704,9.0229 C11.5354,9.0089 12.0104,8.9999 12.5004,8.9999 C12.9904,8.9999 13.4654,9.0089 13.9294,9.0229 C14.1744,9.4189 14.4194,9.8249 14.6654,10.2499 C14.9104,10.6749 15.1404,11.0909 15.3604,11.4999 C15.1404,11.9089 14.9104,12.3249 14.6654,12.7499 M15.9164,12.5649 C16.1344,12.9959 16.3344,13.4139 16.5234,13.8229 C16.0744,13.8629 15.6134,13.8999 15.1314,13.9259 C15.2654,13.7009 15.4004,13.4769 15.5314,13.2499 C15.6624,13.0229 15.7894,12.7929 15.9164,12.5649 M18.0264,1.4869 C18.1134,1.4869 18.1884,1.5049 18.2504,1.5399 C18.8944,1.9129 18.5514,4.4859 16.9534,8.2129 C16.1564,8.1349 15.3314,8.0789 14.4954,8.0439 C14.0474,7.3379 13.5874,6.6509 13.1204,5.9989 C15.3164,3.0649 17.2064,1.4869 18.0264,1.4869 M25.0004,11.4999 C25.0004,9.8989 21.9444,8.8309 17.9904,8.3299 C19.5324,4.6559 20.1364,1.4759 18.7504,0.6749 C17.3634,-0.1321 14.9114,1.9849 12.5004,5.1589 C10.0914,1.9859 7.6404,-0.1261 6.2504,0.6749 C4.8634,1.4759 5.4674,4.6559 7.0104,8.3299 C3.0564,8.8309 0.0004,9.8989 0.0004,11.4999 C0.0004,13.1019 3.0564,14.1689 7.0104,14.6699 C5.4674,18.3439 4.8634,21.5249 6.2504,22.3249 C6.4494,22.4419 6.6724,22.4959 6.9124,22.4959 C8.3434,22.4959 10.4364,20.5539 12.5004,17.8379 C14.5634,20.5539 16.6574,22.4959 18.0874,22.4959 C18.3284,22.4959 18.5504,22.4409 18.7504,22.3249 C20.1364,21.5249 19.5324,18.3439 17.9904,14.6699 C21.9444,14.1689 25.0004,13.1019 25.0004,11.4999 M12.5004,11.9999 C12.2244,11.9999 12.0004,11.7759 12.0004,11.4999 C12.0004,11.2249 12.2244,10.9999 12.5004,10.9999 C12.7764,10.9999 13.0004,11.2249 13.0004,11.4999 C13.0004,11.7759 12.7764,11.9999 12.5004,11.9999 M12.5004,9.9999 C11.6734,9.9999 11.0004,10.6729 11.0004,11.4999 C11.0004,12.3269 11.6734,12.9999 12.5004,12.9999 C13.3274,12.9999 14.0004,12.3269 14.0004,11.4999 C14.0004,10.6729 13.3274,9.9999 12.5004,9.9999"/>
</svg>
